<?xml version="1.0" standalone="no"?>
<!DOCTYPE svg PUBLIC "-//W3C//DTD SVG 20010904//EN"
 "http://www.w3.org/TR/2001/REC-SVG-20010904/DTD/svg10.dtd">
<svg version="1.0" xmlns="http://www.w3.org/2000/svg"
 width="512.000000pt" height="512.000000pt" viewBox="0 0 512.000000 512.000000"
 preserveAspectRatio="xMidYMid meet">
<metadata>
Created by potrace 1.14, written by Peter Selinger 2001-2017
</metadata>
<g transform="translate(0.000000,512.000000) scale(0.100000,-0.100000)"
fill="#000000" stroke="none">
<path d="M1120 4701 c-317 -67 -552 -288 -652 -613 l-23 -73 -3 -1350 c-2
-979 0 -1370 8 -1423 52 -329 285 -594 611 -694 73 -22 79 -22 792 -26 l717
-3 0 1041 0 1040 1033 0 1032 0 -2 292 c-2 161 -4 480 -6 708 -3 394 -4 419
-25 488 -98 325 -336 547 -657 613 -85 18 -161 19 -1415 18 -1235 0 -1331 -2
-1410 -18z m432 -836 l-3 -145 150 0 151 0 0 -80 0 -79 -147 -3 -148 -3 -3
-147 -3 -148 -74 0 -74 0 -3 148 -3 147 -147 3 -148 3 0 79 0 80 151 0 150 0
-3 145 -3 145 80 0 80 0 -3 -145z m2418 -225 l0 -80 -375 0 -375 0 0 80 0 80
375 0 375 0 0 -80z m-2397 -1832 l102 102 58 -57 57 -58 -102 -102 -103 -103
103 -103 102 -102 -57 -58 -58 -57 -102 102 -103 103 -103 -103 -102 -102 -58
57 -57 58 102 102 103 103 -103 103 -102 102 57 58 58 57 102 -102 103 -103
103 103z"/>
<path d="M3232 1763 l3 -88 370 0 370 0 3 88 3 87 -376 0 -376 0 3 -87z"/>
<path d="M3232 1423 l3 -88 370 0 370 0 3 88 3 87 -376 0 -376 0 3 -87z"/>
</g>
</svg>
